<svg width="120" height="104" viewBox="0 0 120 104" fill="none" xmlns="http://www.w3.org/2000/svg">
<path d="M86.26 2.032C75.34 2.032 65.704 7.552 60 15.952C54.292 7.548 44.66 2.032 33.736 2.032C16.208 2.032 2 16.24 2 33.768C2 70.976 60 101.968 60 101.968C60 101.968 118 70.976 118 33.768C118 16.24 103.792 2.032 86.26 2.032Z" fill="#80D8FF"/>
<path d="M4.74023 48C16.2082 78.556 60.0002 101.968 60.0002 101.968C60.0002 101.968 103.792 78.556 115.26 48C115.26 48 105.5 56 60.0002 56C14.5002 56 4.74023 48 4.74023 48Z" fill="#FFF176"/>
<path d="M115.78 22.168C115.916 23.352 116 24.552 116 25.768C116 39.132 108.516 51.692 98.9242 62.308C77.0282 86.536 38.4282 86.212 16.6722 61.86C10.5602 55.02 5.34824 47.384 2.44824 39.256C7.65224 73.968 60.0002 101.968 60.0002 101.968C60.0002 101.968 118 70.976 118 33.768C118 29.672 117.196 25.764 115.78 22.168Z" fill="#65C7EA"/>
<path d="M115.26 48C115.26 48 113.384 49.536 107.448 51.26C104.948 55.12 102.068 58.828 98.9242 62.308C77.0282 86.536 38.4282 86.212 16.6722 61.86C13.2002 57.968 10.0802 53.8 7.44823 49.452C5.50023 48.596 4.74023 48 4.74023 48C16.2082 78.556 60.0002 101.968 60.0002 101.968C60.0002 101.968 103.792 78.556 115.26 48Z" fill="#EAD960"/>
<path d="M117.208 26.788C114.024 12.62 101.392 2.032 86.264 2.032C75.344 2.032 65.708 7.552 60.004 15.952C54.296 7.548 44.664 2.032 33.74 2.032C16.208 2.032 2 16.24 2 33.768C2 39.1 3.22 44.296 5.256 49.296L5.26 49.3C3.5 42.42 3.372 35.256 6.228 27.888C9.88 18.464 18.136 11.284 27.968 8.952C40.98 5.868 53.1 10.792 60.392 19.796C61.196 20.784 62.704 20.908 63.504 19.912C69.32 12.664 78.248 8.028 88.256 8.028C101.164 8.032 112.244 15.74 117.208 26.788Z" fill="#9FE6FF"/>
<path d="M17.792 8.32C17.1 8.32 16.428 7.96 16.056 7.32C15.504 6.364 15.832 5.14 16.792 4.588L17.4 4.248C18.372 3.7 19.58 4.068 20.116 5.032C20.648 6 20.296 7.216 19.328 7.748L18.792 8.052C18.476 8.236 18.132 8.32 17.792 8.32Z" fill="#455A64"/>
<path d="M60 103.968C59.676 103.968 59.352 103.888 59.056 103.732C56.648 102.444 0 71.74 0 33.768C0 24.536 3.656 15.92 10.292 9.508C11.088 8.744 12.352 8.76 13.12 9.556C13.888 10.352 13.868 11.62 13.072 12.384C7.224 18.04 4 25.632 4 33.768C4 66.812 52.572 95.492 60 99.684C67.42 95.492 116 66.792 116 33.768C116 17.368 102.66 4.028 86.26 4.028C76.4 4.028 67.2 8.904 61.652 17.076C60.904 18.168 59.088 18.168 58.344 17.076C52.796 8.904 43.596 4.028 33.732 4.028C31.328 4.028 28.944 4.312 26.648 4.876C25.568 5.128 24.492 4.484 24.228 3.412C23.968 2.34 24.624 1.256 25.696 0.996C28.308 0.356 31.012 0.0319996 33.736 0.0319996C43.992 0.0319996 53.62 4.68 60 12.6C66.38 4.684 76.004 0.0319996 86.26 0.0319996C104.864 0.0319996 120 15.168 120 33.772C120 71.74 63.352 102.448 60.944 103.736C60.648 103.892 60.324 103.968 60 103.968Z" fill="#455A64"/>
</svg>
